<?xml version="1.0" encoding="utf-8"?>
<!DOCTYPE svg PUBLIC "-//W3C//DTD SVG 1.1//EN" "http://www.w3.org/Graphics/SVG/1.1/DTD/svg11.dtd">
<!-- exported from Silhouette Studio® Business Edition V4.5.152ssbe -->
<svg version="1.1" xmlns="http://www.w3.org/2000/svg" xmlns:xlink="http://www.w3.org/1999/xlink" width="200mm" height="200mm" viewBox="0 0 210 297">
<defs>
<path id="path_dc1972848c6f4f63624f858a2bcbd5b8" d="M 191.8252 129.8407 C 203.0804 181.0078 167.8154 229.8621 115.8511 236.5301 C 108.2794 237.5016 81.24603 240.1917 54.08253 221.3121 C 38.42363 210.4286 22.18822 190.7362 17.42439 163.9135 C 14.14095 145.4262 14.681 110.8482 44.79494 83.0728 C 72.6012 57.42593 108.8965 56.11633 132.8316 64.05936 C 165.4789 74.89362 185.0443 102.1603 191.1982 127.2142 C 191.3142 127.6862 191.8136 129.788 191.8252 129.8407 Z M 149.2542 217.833 C 148.9232 217.2286 147.768 215.1472 147.7364 215.0931 C 147.6514 214.9478 147.5261 214.7109 147.3765 214.6628 C 147.177 214.5985 147.0587 214.7276 144.9987 215.7647 C 144.8423 215.8434 142.7014 216.9146 142.3877 217.0706 C 142.0944 217.2164 140.3328 218.0877 139.9406 218.2797 C 139.1084 218.6872 139.5081 218.5149 137.454 219.3949 C 136.7826 219.6825 134.7619 220.5308 134.3923 220.6796 C 127.8053 223.3316 122.2307 224.5559 116.3097 225.391 C 108.8583 226.4418 104.1125 232.7116 103.9815 232.9697 C 108.1044 234.2391 125.4561 230.6393 127.7601 229.9794 C 137.2426 227.2633 147.9769 221.7545 150.245 219.8538 C 150.1597 219.5975 150.1191 219.4122 149.2542 217.833 Z M 104.7873 226.3406 C 105.4351 225.8264 105.3661 225.7999 105.4339 225.716 C 105.4176 225.698 105.53 225.7915 104.5997 224.838 C 104.5545 224.7917 102.3741 222.5764 102.3284 222.5304 L 98.96635 219.1444 C 98.86824 219.0456 94.63762 214.8082 94.04678 214.2175 L 84.2863 204.4579 C 81.33737 204.1831 75.36071 203.5869 66.12696 200.8687 C 64.03591 200.2531 58.81173 198.3671 56.7935 197.5436 C 50.43908 194.9507 48.62653 193.7947 48.26841 193.8915 C 48.18805 193.9132 48.37842 193.5555 45.67261 197.1444 C 45.04927 197.9712 44.03878 199.3165 43.7268 199.7297 C 40.67587 203.7699 41.23269 203.0171 40.92513 203.4881 C 42.65632 206.8054 52.84277 215.5259 58.30775 219.1333 C 65.85542 224.1154 73.38076 227.4562 81.10252 229.6917 C 97.91032 234.5576 97.29389 232.289 101.4372 229 L 104.7873 226.3406 Z M 180.2046 157.0727 C 179.9246 157.3213 180.0135 157.2377 176.1298 161.7996 C 176.0502 161.893 174.4281 163.8159 174.1506 164.1436 C 174.099 164.2045 172.9119 165.6018 172.8604 165.6626 C 172.55 166.0288 171.4437 167.3385 170.6456 168.2801 C 169.4456 169.6958 170.1876 168.8208 169.552 169.5649 L 165.6089 174.1824 C 159.4797 181.3626 158.4203 182.6072 158.2473 183.034 C 158.1909 183.1733 158.2235 183.183 157.318 186.6743 L 155.971 191.8675 C 155.4235 193.9784 155.0557 195.3561 154.91 195.9249 L 153.1238 202.9019 C 153.0766 203.0862 152.0848 206.8577 151.9153 207.5015 C 151.7164 208.257 151.6654 208.4507 151.6604 208.47 C 151.5615 208.85 150.9761 211.1319 150.9623 211.1862 C 150.9575 211.2055 150.948 211.244 150.7224 212.149 C 152.1906 214.5061 152.1604 214.4581 152.2205 214.5542 C 152.5421 215.0689 153.9081 217.3176 154.108 217.3482 C 154.4997 217.4081 160.4435 212.2605 161.7633 211.0617 C 170.1739 203.4225 174.7192 196.5426 176.9854 192.9344 C 186.1066 178.4112 188.7077 162.0871 188.7515 160.7158 C 188.6037 160.6032 182.9987 158.0887 180.2046 157.0727 Z M 92.71688 194.9701 C 99.34981 189.2211 112.0353 175.7607 112.5761 173.4833 C 112.6342 173.2388 112.5301 172.8368 112.3412 172.1067 L 111.0964 167.2976 C 110.972 166.817 110.2986 164.256 110.0445 163.2961 C 109.9518 162.9459 109.3138 160.5543 109.2678 160.3791 C 109.1084 159.7724 109.1129 159.7713 107.3001 152.7888 C 106.755 150.6888 106.3527 149.2415 106.2242 148.7576 C 106.2046 148.6836 105.337 145.3492 105.2604 145.0527 L 103.9363 139.9265 C 103.9162 139.8486 103.5049 138.2928 102.905 136.0378 C 102.8087 135.6759 102.0628 132.6642 101.8645 132.4396 C 101.3481 131.8549 91.15496 128.4102 89.67161 127.9267 C 83.60625 125.9499 78.38134 124.7113 77.38684 124.4815 C 77.32317 124.4668 74.26252 123.7843 74.19872 123.7703 C 72.64532 123.4283 63.68463 121.5985 63.01906 121.7458 C 61.65672 122.0474 50.39037 133.5043 46.60182 138.2166 C 41.40962 144.6749 36.28399 151.018 37.30222 156.7285 C 38.89618 165.6678 41.44764 172.743 43.03197 176.5542 C 49.00357 190.9193 51.82742 190.7559 53.90425 191.5471 C 54.10326 191.6229 56.82992 192.641 57.22842 192.7914 C 86.03474 203.6622 86.35814 200.3863 90.43936 196.9199 C 90.48506 196.8811 92.44501 195.2057 92.71688 194.9701 Z M 159.8828 173.8531 C 160.7299 172.8658 160.6812 172.8877 161.427 172.004 C 161.5472 171.8616 162.9971 170.16 163.4391 169.6392 C 163.4853 169.5847 165.4235 167.2968 165.7453 166.9144 C 166.715 165.7623 167.2199 165.1416 167.2499 165.1053 C 167.729 164.5244 170.6094 161.0429 171.2495 160.2693 C 171.9847 159.3806 174.5241 156.3104 174.5902 156.229 C 177.018 153.2451 176.8287 152.4925 176.3944 150.4955 C 176.3485 150.2843 176.0016 148.756 175.8014 147.8595 C 174.8457 143.5791 174.9903 144.2124 173.9793 139.9447 C 173.9599 139.8631 173.3828 137.416 173.0193 135.8657 C 172.9825 135.7085 173.0193 135.8657 172.6508 134.294 C 172.4521 133.4462 172.0199 131.6099 171.8198 130.7625 C 171.1723 128.0206 171.1979 128.1281 171.185 128.0744 C 171.1554 127.9518 170.7495 126.2986 170.4319 125.0133 C 167.8171 114.4306 168.6777 115.0301 163.5694 112.4181 C 148.2557 104.5877 134.7406 102.6573 132.1795 101.9918 C 131.5996 102.3269 131.5955 102.3629 127.5458 106.828 L 124.0562 110.676 C 122.4661 112.4333 122.3984 112.508 122.3644 112.5453 C 122.3184 112.596 120.1474 114.9732 120.0554 115.0747 C 114.8425 120.8338 116.4433 119.0442 115.306 120.3008 C 115.267 120.3439 113.3973 122.4165 113.3583 122.4596 C 113.0194 122.8336 111.4645 124.5382 110.9316 125.1257 C 110.0555 126.0915 108.041 128.327 107.5676 128.8455 C 105.7669 130.8181 105.9928 130.5357 105.8181 130.9353 C 105.9161 131.3034 106.2016 132.2523 106.8141 134.6121 L 108.2271 140.0578 C 109.1946 143.7934 108.2747 140.2847 109.1946 143.7934 C 109.2133 143.8647 110.1208 147.283 110.1396 147.3543 C 110.2893 147.9221 110.8028 149.8846 110.8161 149.9363 L 112.1584 155.1447 L 114.2285 162.9971 L 115.5311 168.0114 C 115.6347 168.4103 116.3543 171.1337 116.4035 171.3338 C 116.6228 172.2269 116.4825 171.8398 116.6935 172.2065 C 117.6302 172.5957 122.4996 174.0772 128.938 175.4959 C 129.0974 175.5311 131.5435 176.0557 131.5967 176.0668 C 133.4279 176.4497 139.8763 177.6962 147.0163 178.3681 C 147.0945 178.3755 150.849 178.7169 150.9272 178.7232 C 154.3159 178.9958 155.5368 178.8651 157.4258 176.7234 C 157.5258 176.61 158.1113 175.9176 159.8828 173.8531 Z M 35.79343 145.8294 L 38.48074 142.1914 C 38.55148 142.0957 40.04408 140.0899 40.25935 139.8049 C 45.23321 133.2196 47.96141 130.4827 49.82176 128.5919 C 49.86207 128.5509 51.76199 126.6317 51.84303 126.5502 C 51.88882 126.5042 54.09176 124.2985 54.13776 124.2526 L 59.85643 118.5524 C 59.87405 118.3172 59.97524 117.0626 60.11787 114.6287 L 60.37801 110.189 C 60.40878 109.6639 60.73517 104.4141 60.78328 103.6265 C 60.94851 100.9222 61.51193 91.57941 61.52607 91.33351 C 61.53596 91.16154 61.66592 88.8111 61.68193 88.46697 C 61.71291 87.80138 61.75942 86.86214 61.66626 86.71358 C 61.58966 86.59141 56.4461 84.25645 55.11715 83.69643 C 54.29789 83.35119 52.13433 82.42427 51.93137 82.45428 C 50.08613 82.72707 38.6666 95.63753 35.93087 99.41402 C 31.82663 105.0796 27.10903 113.2247 23.98386 123.524 C 22.68293 127.8114 19.28375 144.109 20.25708 145.6138 C 20.32899 145.7249 20.96877 145.9858 26.48995 147.8436 C 30.55834 149.2126 32.17378 149.7184 32.67918 149.842 C 32.82013 149.7157 32.69915 149.9778 34.1749 148.0084 C 34.20745 147.9649 35.37412 146.3971 35.79343 145.8294 Z M 116.725 64.57355 C 116.4567 64.646 115.7721 65.38425 115.6755 65.48404 C 115.5726 65.59016 113.9384 67.2993 113.1191 68.15171 L 110.1527 71.23786 C 109.1377 72.29386 109.2702 72.22044 109.1892 72.38047 C 110.5156 74.13589 113.7348 75.10967 122.5523 84.93419 C 122.5935 84.98016 124.5585 87.20056 124.5993 87.24703 C 125.0968 87.8151 126.9821 90.01243 128.6663 92.04948 C 129.2018 92.69724 130.7977 94.64942 131.0897 95.00285 C 133.1548 97.50234 132.3334 97.43269 141.3832 100.3061 C 141.4517 100.3279 144.676 101.3388 144.8129 101.383 L 148.775 102.6628 L 154.7206 104.5771 C 159.0908 105.9844 161.5066 106.8138 162.7633 107.3347 C 165.4654 108.4548 168.622 110.3673 169.3288 110.5548 C 169.4915 110.4104 169.1926 111.1071 172.1889 105.928 C 174.6403 101.6908 175.0455 101.1178 175.0445 101.004 C 175.0427 100.7924 172.75 97.40849 168.5135 92.68187 C 162.6325 86.12027 156.2241 80.56001 148.6946 75.9831 C 145.5932 74.09792 140.1355 71.03851 132.237 68.3378 C 129.2162 67.30493 117.9578 64.24059 116.725 64.57355 Z M 74.24567 79.93957 C 75.05755 79.67397 76.97237 79.0513 77.14632 78.99432 C 77.19604 78.97803 79.58092 78.19222 79.63063 78.17589 C 79.77117 78.1297 83.07461 77.04659 83.14499 77.02383 C 84.74814 76.50518 84.44402 76.60741 86.97906 75.84298 C 87.30996 75.74319 90.22066 74.86104 90.28688 74.84122 C 91.96445 74.33937 93.96415 73.76818 95.54951 73.34218 C 98.6487 72.50938 96.07025 73.21912 98.42242 72.58338 C 103.7823 71.13472 109.1539 67.7628 110.3619 64.16107 C 106.1274 62.76085 90.10928 64.56937 82.60387 66.71095 C 69.02525 70.58541 57.74366 77.76172 56.07224 79.41851 C 56.79124 79.9474 63.66344 82.99417 64.16101 83.19226 C 65.18352 82.91772 66.2785 82.54592 68.74835 81.73791 L 74.24567 79.93957 Z" fill-rule="evenodd" fill="#000000" fill-opacity="1" stroke="#FF0000" stroke-opacity="1" stroke-width="0" stroke-linecap="round" stroke-linejoin="round"/>
</defs>
<g>
<use xlink:href="#path_dc1972848c6f4f63624f858a2bcbd5b8"/>
</g>
</svg>